<?xml version="1.0" encoding="utf-8"?>
<!-- Generator: Adobe Illustrator 25.0.0, SVG Export Plug-In . SVG Version: 6.00 Build 0)  -->
<svg version="1.1" xmlns="http://www.w3.org/2000/svg" xmlns:xlink="http://www.w3.org/1999/xlink" x="0px" y="0px"
	 viewBox="0 0 940.1 684.3" style="enable-background:new 0 0 940.1 684.3;" xml:space="preserve">
<style type="text/css">
	.st0{opacity:0.6;}
	.st1{opacity:0.49;}
	.st2{fill:#FFFFFF;}
	.st3{opacity:0.76;}
</style>
<g id="Layer_1" class="st0">
	<g>
		<g class="st1">
			<g>
				<g>
					<path class="st2" d="M345.62,356.67c-13.8-26.61-36.11-41.31-66.3-43.7c-45.02-3.56-75.91-35.34-89.32-91.9
						c-5.73-24.16-7.08-47.73-7.21-63.33c-45.74,37.14-49.58,122.86-6.52,200.36c44.59,80.23,123.2,122.43,179.4,98.02
						C361.82,438.52,364,392.12,345.62,356.67z"/>
					<g>
						<path class="st2" d="M201.12,146.54c-0.38,12.17-0.35,41.38,6.66,70.7c11.61,48.59,36.16,74.7,72.97,77.61
							c36.35,2.88,64.37,21.36,81.01,53.45c15.82,30.51,18.41,68.11,15.11,94.37c43.34-38.21,46.24-122.2,3.98-198.25
							C336.18,164.03,257.34,121.82,201.12,146.54z"/>
					</g>
				</g>
			</g>
		</g>
		<g class="st1">
			<g>
				<g>
					<path class="st2" d="M607.12,355.33c13.89-26.78,36.35-41.58,66.74-43.99c45.32-3.58,76.42-35.58,89.91-92.52
						c5.76-24.32,7.13-48.05,7.26-63.75c46.04,37.39,49.91,123.68,6.56,201.7c-44.88,80.77-124.02,123.24-180.6,98.67
						C590.81,437.71,588.62,391,607.12,355.33z"/>
					<g>
						<path class="st2" d="M752.58,143.79c0.38,12.25,0.35,41.65-6.7,71.17c-11.69,48.91-36.4,75.19-73.45,78.12
							c-36.6,2.89-64.8,21.5-81.55,53.81c-15.93,30.71-18.54,68.57-15.21,95c-43.63-38.47-46.55-123.01-4-199.57
							C616.62,161.4,695.98,118.91,752.58,143.79z"/>
					</g>
				</g>
			</g>
		</g>
		<g class="st3">
			<g>
				<g>
					<path class="st2" d="M514.97,362.05c1.12-39.01-14.97-69.86-47.83-91.67c-49-32.53-64.05-88.24-43.53-161.11
						c8.76-31.12,22.13-58.81,31.85-76.65C379.9,45.96,321.31,141.1,321.31,256.56c0,119.53,62.8,217.29,142.2,225.05
						C481.65,465.46,513.48,414.02,514.97,362.05z"/>
					<g>
						<path class="st2" d="M483.42,31.46c-8.12,13.61-26.57,46.88-37.14,84.69c-17.52,62.65-6.09,107.9,33.97,134.49
							c39.56,26.27,59.76,65.03,58.4,112.09c-1.29,44.74-22.12,89.18-42.5,116.98c73.51-16.08,129.93-109.85,129.93-223.15
							C626.08,136.8,563.04,38.89,483.42,31.46z"/>
					</g>
				</g>
			</g>
		</g>
	</g>
</g>
<g id="Layer_2">
	<g>
		<path class="st2" d="M117.09,587.11c0,18.09-4.46,33.41-13.38,45.97c-9.92,14.2-23.55,21.29-40.88,21.29
			c-4.9,0-10.17-0.94-15.83-2.83c-12.56-4.02-21.54-10.99-26.94-20.91c-4.65-8.54-6.97-19.97-6.97-34.29
			c0-18.59,4.46-34.98,13.38-49.17c10.3-16.7,24.24-25.06,41.83-25.06c15.45,0,27.76,7.22,36.93,21.67
			C113.13,556.21,117.09,570.66,117.09,587.11z M99,585.42c0-26.12-8.42-41.76-25.25-46.91c-1.76-0.5-3.77-0.75-6.03-0.75
			c-7.04,0-14.07,3.14-21.1,9.42c-11.18,10.17-16.77,28.33-16.77,54.45c0,2.39,0.5,5.72,1.51,9.99c2.13,9.67,5.34,16.64,9.61,20.91
			c4.9,5.03,12.06,7.54,21.48,7.54c12.81,0,22.48-6.22,29.01-18.65C96.49,611.6,99,599.61,99,585.42z"/>
		<path class="st2" d="M177.56,583.34c0,3.39-5.15,5.78-15.45,7.16c-0.25,2.76-0.37,9.04-0.37,18.84v12.43
			c0,2.51,0.38,6.22,1.13,11.12c0.75,4.9,1.13,8.54,1.13,10.93c0,2.01-1.01,3.8-3.01,5.37c-2.01,1.57-4.02,2.36-6.03,2.36
			c-3.14,0-5.78-2.7-7.91-8.1c-1.63-4.14-2.45-8.16-2.45-12.06v-39.94c-5.78-0.88-9.11-1.44-9.99-1.7c-3.27-1-4.9-2.45-4.9-4.33
			c0-0.5,0.12-1.07,0.38-1.7c3.26-4.65,6.91-6.97,10.93-6.97c0.25,0,0.63,0,1.13,0c0.5,0.13,0.88,0.19,1.13,0.19
			c2.64,0,3.89-3.08,3.77-9.23v-13.75c-0.63-1.38-0.94-2.57-0.94-3.58c0-1.63,0.96-3.11,2.89-4.43c1.93-1.32,3.76-1.98,5.5-1.98
			c2.61,0,5.1,1.22,7.46,3.67s3.55,5.06,3.55,7.82c0,3.01-0.47,6-1.41,8.95c-0.94,2.95-1.35,6-1.22,9.14v0.75
			C172.66,575.31,177.56,578.32,177.56,583.34z"/>
		<path class="st2" d="M224.29,583.34c0,3.39-5.15,5.78-15.45,7.16c-0.25,2.76-0.37,9.04-0.37,18.84v12.43
			c0,2.51,0.38,6.22,1.13,11.12c0.75,4.9,1.13,8.54,1.13,10.93c0,2.01-1.01,3.8-3.01,5.37c-2.01,1.57-4.02,2.36-6.03,2.36
			c-3.14,0-5.78-2.7-7.91-8.1c-1.63-4.14-2.45-8.16-2.45-12.06v-39.94c-5.78-0.88-9.11-1.44-9.99-1.7c-3.27-1-4.9-2.45-4.9-4.33
			c0-0.5,0.12-1.07,0.38-1.7c3.26-4.65,6.91-6.97,10.93-6.97c0.25,0,0.63,0,1.13,0c0.5,0.13,0.88,0.19,1.13,0.19
			c2.64,0,3.89-3.08,3.77-9.23v-13.75c-0.63-1.38-0.94-2.57-0.94-3.58c0-1.63,0.96-3.11,2.89-4.43c1.93-1.32,3.76-1.98,5.5-1.98
			c2.61,0,5.1,1.22,7.46,3.67s3.55,5.06,3.55,7.82c0,3.01-0.47,6-1.41,8.95c-0.94,2.95-1.35,6-1.22,9.14v0.75
			C219.39,575.31,224.29,578.32,224.29,583.34z"/>
		<path class="st2" d="M291.74,618.76c0,16.2-0.5,27.63-1.51,34.29c-0.63,3.89-3.27,5.84-7.91,5.84c-7.04,0-10.17-3.52-9.42-10.55
			c-6.28,3.01-12.81,4.52-19.59,4.52c-6.53,0-12.75-1.63-18.65-4.9c-7.04-3.89-10.55-8.85-10.55-14.88c0-5.9,4.02-11.43,12.06-16.58
			c7.28-4.65,14.13-6.97,20.54-6.97h16.01v-4.49c0.12-13.08-3.77-19.63-11.68-19.63c-9.92,0-14.88,4.6-14.88,13.8
			c0,3.11-1.76,4.66-5.28,4.66c-2.14,0-4.37-0.97-6.69-2.92c-2.33-1.95-3.49-3.99-3.49-6.12c0-7.03,2.51-12.81,7.54-17.33
			c5.02-4.52,11.05-6.78,18.09-6.78C279.93,570.72,291.74,586.73,291.74,618.76z M272.71,625.54c0-2.51-1.88-3.77-5.65-3.77
			c-15.7,0-23.55,3.71-23.55,11.12c0,4.02,3.45,6.03,10.36,6.03c4.27,0,8.29-1.19,12.06-3.58
			C270.45,632.7,272.71,629.44,272.71,625.54z"/>
		<path class="st2" d="M399.88,592.39c0,11.3-2.07,22.99-6.22,35.04c-5.4,15.83-12.56,23.74-21.48,23.74
			c-8.42,0-15.39-5.21-20.91-15.64c-3.77,11.05-9.73,16.58-17.9,16.58c-10.43,0-18.02-7.16-22.8-21.48
			c-3.27-9.8-4.9-21.29-4.9-34.48c0-8.29,0.31-15.01,0.94-20.16c1.76-2.76,4.08-4.15,6.97-4.15c2.51,0,5.05,0.82,7.63,2.45
			c2.57,1.63,3.86,3.58,3.86,5.84c0,1.63-0.38,4.05-1.13,7.25c-0.75,3.2-1.13,5.62-1.13,7.25c0,27.63,2.9,41.45,8.7,41.45
			c6.05,0,10-7.66,11.85-22.99c0.62-5.78,0.92-15.89,0.92-30.33c0-4.77,2.76-7.16,8.29-7.16c6.15,0,9.23,3.46,9.23,10.36
			c0,0.63-0.06,1.51-0.19,2.64c-0.13,1.13-0.19,1.95-0.19,2.45v21.29c0,15.83,2.89,23.74,8.67,23.74c4.9,0,8.6-5.78,11.12-17.33
			c1.88-8.04,2.83-15.89,2.83-23.55c0-6.53-0.31-10.36-0.94-11.49c-0.13-0.25-0.82-1-2.07-2.26c-0.75-1-1.13-1.95-1.13-2.83
			c0-2.26,1-4.3,3.01-6.12c2.01-1.82,4.15-2.73,6.41-2.73c3.39,0,6.09,3.01,8.1,9.04C399.06,583.47,399.88,587.99,399.88,592.39z"/>
		<path class="st2" d="M475.24,618.76c0,16.2-0.5,27.63-1.51,34.29c-0.63,3.89-3.27,5.84-7.91,5.84c-7.04,0-10.17-3.52-9.42-10.55
			c-6.28,3.01-12.81,4.52-19.59,4.52c-6.53,0-12.75-1.63-18.65-4.9c-7.04-3.89-10.55-8.85-10.55-14.88c0-5.9,4.02-11.43,12.06-16.58
			c7.28-4.65,14.13-6.97,20.54-6.97h16.01v-4.49c0.12-13.08-3.77-19.63-11.68-19.63c-9.92,0-14.88,4.6-14.88,13.8
			c0,3.11-1.76,4.66-5.28,4.66c-2.14,0-4.37-0.97-6.69-2.92c-2.33-1.95-3.49-3.99-3.49-6.12c0-7.03,2.51-12.81,7.54-17.33
			c5.02-4.52,11.05-6.78,18.09-6.78C463.43,570.72,475.24,586.73,475.24,618.76z M456.21,625.54c0-2.51-1.88-3.77-5.65-3.77
			c-15.7,0-23.55,3.71-23.55,11.12c0,4.02,3.45,6.03,10.36,6.03c4.27,0,8.29-1.19,12.06-3.58
			C453.95,632.7,456.21,629.44,456.21,625.54z"/>
		<path class="st2" d="M611.64,619.86c0,2.38-0.63,5.25-1.88,8.62c-3.14,8.25-9.04,14.76-17.71,19.51c-7.91,4.25-16.58,6.38-26,6.38
			c-15.45,0-27.32-5.83-35.61-17.5c-7.16-10.16-10.74-23.27-10.74-39.32c0-13.29,2.07-25.77,6.22-37.44
			c4.64-13.29,11.49-23.71,20.54-31.23c7.16-5.89,14.44-8.84,21.86-8.84c10.67,0,18.78,4.65,24.3,13.94
			c4.52,7.54,6.78,17.02,6.78,28.45c0,5.15-1.32,11.62-3.96,19.41c-3.14,9.55-6.66,14.32-10.55,14.32c-4.4,0-7.72-2.76-9.99-8.29
			c1.25-0.88,3.01-2.32,5.28-4.33c2.51-2.76,3.77-8.16,3.77-16.2c0-7.79-0.82-14.38-2.45-19.78c-2.51-8.16-6.66-12.25-12.43-12.25
			c-4.02,0-8.42,2.57-13.19,7.71c-3.64,3.89-6.72,8.21-9.23,12.98c-6.16,12.04-9.23,27.02-9.23,44.95c0,26.08,9.8,39.12,29.39,39.12
			c8.41,0,15.07-2.37,19.97-7.11c2.01-2.12,4.96-6.55,8.86-13.29c2.64-4.86,5.46-7.3,8.48-7.3c2.01,0,3.77,0.78,5.28,2.35
			C610.88,616.27,611.64,617.99,611.64,619.86z"/>
		<path class="st2" d="M691.9,613.68c0,11.3-2.83,20.98-8.48,29.01c-6.53,9.17-15.2,13.75-26,13.75c-11.05,0-19.41-3.77-25.06-11.3
			c-5.15-6.66-7.72-15.7-7.72-27.13c0-11.3,2.83-21.98,8.48-32.03c6.53-11.93,15.01-17.9,25.43-17.9c3.26,0,7.35,1.45,12.25,4.33
			C684.86,580.83,691.9,594.58,691.9,613.68z M675.32,613.3c0-19.22-4.65-28.83-13.94-28.83c-6.66,0-11.68,4.08-15.07,12.25
			c-2.51,6.16-3.77,13.13-3.77,20.91c0,16.71,4.96,25.06,14.88,25.06c6.41,0,11.18-3.45,14.32-10.36
			C674.12,627.05,675.32,620.71,675.32,613.3z"/>
		<path class="st2" d="M762.17,538.31c0,2.14-1.04,3.89-3.11,5.28c-2.07,1.38-4.18,2.07-6.31,2.07c-1.63,0-3.39-0.75-5.28-2.26
			c-0.13-2.51-0.63-4.11-1.51-4.8c-0.88-0.69-2.7-1.04-5.46-1.04c-5.4,0-9.3,6.73-11.68,20.19c-1.26,7.72-1.95,16.64-2.07,26.73
			c0.63,0,1.38,0,2.26,0c1.13,0,1.95,0,2.45,0c5.28,0,9.04,2.07,11.3,6.22l-1.7,7.16c-2.39,1.26-6.53,1.88-12.43,1.88
			c-1.01,0-1.82,0.07-2.45,0.19c-0.38,4.15-0.56,8.67-0.56,13.57v17.14c0,6.66,1,13.5,3.01,20.54c-4.9,2.76-8.48,4.14-10.74,4.14
			c-3.01,0-5.4-2.33-7.16-6.97c-1.51-3.64-2.26-7.28-2.26-10.93c0-2.26,0.25-14.32,0.75-36.17c-4.14,0.38-6.09,0.57-5.84,0.57
			c-2.14,0-4.02-0.69-5.65-2.07c-1.63-1.38-2.45-3.2-2.45-5.45c0-3.88,1.63-6.39,4.9-7.52c1.76-0.5,5.02-0.75,9.8-0.75
			c0.38-1.25,0.57-5.08,0.57-11.47c0-12.91,2.07-24.12,6.22-33.64c5.65-12.53,14.13-18.8,25.43-18.8c5.65,0,10.3,1.26,13.94,3.77
			C760.16,528.89,762.17,533.04,762.17,538.31z"/>
		<path class="st2" d="M810.4,538.31c0,2.14-1.04,3.89-3.11,5.28c-2.07,1.38-4.18,2.07-6.31,2.07c-1.63,0-3.39-0.75-5.28-2.26
			c-0.13-2.51-0.63-4.11-1.51-4.8c-0.88-0.69-2.7-1.04-5.46-1.04c-5.4,0-9.3,6.73-11.68,20.19c-1.26,7.72-1.95,16.64-2.07,26.73
			c0.63,0,1.38,0,2.26,0c1.13,0,1.95,0,2.45,0c5.28,0,9.04,2.07,11.3,6.22l-1.7,7.16c-2.39,1.26-6.53,1.88-12.43,1.88
			c-1.01,0-1.82,0.07-2.45,0.19c-0.38,4.15-0.56,8.67-0.56,13.57v17.14c0,6.66,1,13.5,3.01,20.54c-4.9,2.76-8.48,4.14-10.74,4.14
			c-3.01,0-5.4-2.33-7.16-6.97c-1.51-3.64-2.26-7.28-2.26-10.93c0-2.26,0.25-14.32,0.75-36.17c-4.14,0.38-6.09,0.57-5.84,0.57
			c-2.14,0-4.02-0.69-5.65-2.07c-1.63-1.38-2.45-3.2-2.45-5.45c0-3.88,1.63-6.39,4.9-7.52c1.76-0.5,5.02-0.75,9.8-0.75
			c0.38-1.25,0.57-5.08,0.57-11.47c0-12.91,2.07-24.12,6.22-33.64c5.65-12.53,14.13-18.8,25.43-18.8c5.65,0,10.3,1.26,13.94,3.77
			C808.39,528.89,810.4,533.04,810.4,538.31z"/>
		<path class="st2" d="M860.89,634.21c0,6.28-4.27,11.18-12.81,14.7c-6.66,2.76-13.63,4.14-20.91,4.14
			c-19.34,0-29.01-10.99-29.01-32.97c0-9.04,2.2-19.09,6.59-30.14c5.4-13.56,11.93-20.35,19.59-20.35c6.91,0,14.35,3.08,22.33,9.23
			c7.97,6.16,11.96,12.56,11.96,19.22c0,8.29-3.71,14.88-11.12,19.78c-6.53,4.4-14.32,6.59-23.36,6.59c-1.76,0-4.59-1.07-8.48-3.2
			c0.5,11.93,4.02,17.9,10.55,17.9c5.53,0,10.96-1.57,16.3-4.71c5.34-3.14,8.76-4.71,10.27-4.71
			C858.19,629.69,860.89,631.2,860.89,634.21z M840.36,598.6c0-3.14-0.91-6.12-2.73-8.95c-1.82-2.83-4.24-4.24-7.25-4.24
			c-4.14,0-7.35,1.82-9.61,5.46c-1.88,3.14-2.83,6.85-2.83,11.12c0,2.39,0.82,4.33,2.45,5.84c1.63,1.51,3.7,2.26,6.22,2.26
			C835.77,610.1,840.36,606.27,840.36,598.6z"/>
		<path class="st2" d="M932.49,634.21c0,6.28-4.27,11.18-12.81,14.7c-6.66,2.76-13.63,4.14-20.91,4.14
			c-19.34,0-29.01-10.99-29.01-32.97c0-9.04,2.2-19.09,6.59-30.14c5.4-13.56,11.93-20.35,19.59-20.35c6.91,0,14.35,3.08,22.33,9.23
			c7.97,6.16,11.96,12.56,11.96,19.22c0,8.29-3.71,14.88-11.12,19.78c-6.53,4.4-14.32,6.59-23.36,6.59c-1.76,0-4.59-1.07-8.48-3.2
			c0.5,11.93,4.02,17.9,10.55,17.9c5.53,0,10.96-1.57,16.3-4.71c5.34-3.14,8.76-4.71,10.27-4.71
			C929.78,629.69,932.49,631.2,932.49,634.21z M911.95,598.6c0-3.14-0.91-6.12-2.73-8.95c-1.82-2.83-4.24-4.24-7.25-4.24
			c-4.14,0-7.35,1.82-9.61,5.46c-1.88,3.14-2.83,6.85-2.83,11.12c0,2.39,0.82,4.33,2.45,5.84c1.63,1.51,3.7,2.26,6.22,2.26
			C907.36,610.1,911.95,606.27,911.95,598.6z"/>
	</g>
</g>
</svg>
